# xmcd
#
# Track frame offsets:
#        187
#        27805
#        47142
#        64807
#        81982
#        105695
#        132275
#        148870
#
# Disc length: 2177 seconds
#
# Revision: 2
# Processed by: cddbd v1.5.1PL0 Copyright (c) Steve Scherf et al.
# Submitted via: ExactAudioCopy v0.95a5
#
DISCID=70087f08
DTITLE=Paco de Lucia - Fuente y caudal
DYEAR=1973
DGENRE=Classical
TTITLE0=Entre dos aguas "Rumba"
TTITLE1=Aires choqueros "Fandangos de Huelva"
TTITLE2=Reflejo de luna "Granaia"
TTITLE3=Solera "Bulerias por solea"
TTITLE4=Fuente y caudal "Taranta"
TTITLE5=Cepa andaluza "Buleria"
TTITLE6=Los pinares "Tangos"
TTITLE7=Plaza de San Juan "Alegria"
EXTD=
EXTT0=
EXTT1=
EXTT2=
EXTT3=
EXTT4=
EXTT5=
EXTT6=
EXTT7=
PLAYORDER=
